<mxfile host="app.diagrams.net" modified="2024-03-01T14:06:10.738Z" agent="Mozilla/5.0 (Windows NT 10.0; Win64; x64; rv:123.0) Gecko/20100101 Firefox/123.0" etag="Wb3igJGQrgJ24ASa5PtH" version="24.0.0" type="device">
  <diagram name="Page-1" id="zija7tUGji7Ak6_ahPXR">
    <mxGraphModel dx="2625" dy="2564" grid="1" gridSize="10" guides="1" tooltips="1" connect="1" arrows="1" fold="1" page="1" pageScale="1" pageWidth="827" pageHeight="1169" math="0" shadow="0">
      <root>
        <mxCell id="0" />
        <mxCell id="1" parent="0" />
        <mxCell id="Lxihj4ZoKtsZomWR5RYV-24" style="edgeStyle=orthogonalEdgeStyle;rounded=0;orthogonalLoop=1;jettySize=auto;html=1;entryX=0.5;entryY=0;entryDx=0;entryDy=0;" edge="1" parent="1" source="Lxihj4ZoKtsZomWR5RYV-1" target="Lxihj4ZoKtsZomWR5RYV-4">
          <mxGeometry relative="1" as="geometry" />
        </mxCell>
        <mxCell id="Lxihj4ZoKtsZomWR5RYV-1" value="Début" style="rounded=1;whiteSpace=wrap;html=1;" vertex="1" parent="1">
          <mxGeometry x="424" y="-350" width="120" height="60" as="geometry" />
        </mxCell>
        <mxCell id="Lxihj4ZoKtsZomWR5RYV-25" style="edgeStyle=orthogonalEdgeStyle;rounded=0;orthogonalLoop=1;jettySize=auto;html=1;" edge="1" parent="1" source="Lxihj4ZoKtsZomWR5RYV-4" target="Lxihj4ZoKtsZomWR5RYV-5">
          <mxGeometry relative="1" as="geometry" />
        </mxCell>
        <mxCell id="Lxihj4ZoKtsZomWR5RYV-4" value="Initialisation caractéristique du robot" style="rounded=0;whiteSpace=wrap;html=1;" vertex="1" parent="1">
          <mxGeometry x="424" y="-250" width="120" height="60" as="geometry" />
        </mxCell>
        <mxCell id="Lxihj4ZoKtsZomWR5RYV-26" style="edgeStyle=orthogonalEdgeStyle;rounded=0;orthogonalLoop=1;jettySize=auto;html=1;" edge="1" parent="1" source="Lxihj4ZoKtsZomWR5RYV-5" target="Lxihj4ZoKtsZomWR5RYV-6">
          <mxGeometry relative="1" as="geometry" />
        </mxCell>
        <mxCell id="Lxihj4ZoKtsZomWR5RYV-5" value="&lt;div&gt;ouvre fenêtre 1&lt;/div&gt;&lt;div&gt;2 Bouton&lt;br&gt;&lt;/div&gt;" style="rounded=0;whiteSpace=wrap;html=1;" vertex="1" parent="1">
          <mxGeometry x="424" y="-150" width="120" height="60" as="geometry" />
        </mxCell>
        <mxCell id="Lxihj4ZoKtsZomWR5RYV-27" style="edgeStyle=orthogonalEdgeStyle;rounded=0;orthogonalLoop=1;jettySize=auto;html=1;entryX=0.5;entryY=0;entryDx=0;entryDy=0;" edge="1" parent="1" source="Lxihj4ZoKtsZomWR5RYV-6" target="Lxihj4ZoKtsZomWR5RYV-10">
          <mxGeometry relative="1" as="geometry" />
        </mxCell>
        <mxCell id="Lxihj4ZoKtsZomWR5RYV-6" value="&lt;div&gt;ouvre fenêtre 2&amp;nbsp;&lt;/div&gt;&lt;div&gt;1 Bouton &lt;/div&gt;" style="rounded=0;whiteSpace=wrap;html=1;" vertex="1" parent="1">
          <mxGeometry x="424" y="-50" width="120" height="60" as="geometry" />
        </mxCell>
        <mxCell id="Lxihj4ZoKtsZomWR5RYV-80" style="edgeStyle=orthogonalEdgeStyle;rounded=0;orthogonalLoop=1;jettySize=auto;html=1;exitX=0.5;exitY=1;exitDx=0;exitDy=0;entryX=0.5;entryY=0;entryDx=0;entryDy=0;" edge="1" parent="1" source="Lxihj4ZoKtsZomWR5RYV-10">
          <mxGeometry relative="1" as="geometry">
            <mxPoint x="484" y="190" as="targetPoint" />
          </mxGeometry>
        </mxCell>
        <mxCell id="Lxihj4ZoKtsZomWR5RYV-10" value="&lt;div&gt;While &#39;q&#39;&amp;nbsp;&lt;/div&gt;&lt;div&gt;n&#39;est pas&amp;nbsp;&lt;/div&gt;&lt;div&gt;appuyé sur&amp;nbsp;&lt;/div&gt;&lt;div&gt;le clavier&lt;/div&gt;" style="rhombus;whiteSpace=wrap;html=1;" vertex="1" parent="1">
          <mxGeometry x="426" y="50" width="116" height="100" as="geometry" />
        </mxCell>
        <mxCell id="Lxihj4ZoKtsZomWR5RYV-87" style="edgeStyle=orthogonalEdgeStyle;rounded=0;orthogonalLoop=1;jettySize=auto;html=1;exitX=1;exitY=0.5;exitDx=0;exitDy=0;entryX=0.5;entryY=0;entryDx=0;entryDy=0;" edge="1" parent="1" source="Lxihj4ZoKtsZomWR5RYV-11" target="Lxihj4ZoKtsZomWR5RYV-113">
          <mxGeometry relative="1" as="geometry">
            <mxPoint x="694" y="410" as="targetPoint" />
          </mxGeometry>
        </mxCell>
        <mxCell id="Lxihj4ZoKtsZomWR5RYV-88" style="edgeStyle=orthogonalEdgeStyle;rounded=0;orthogonalLoop=1;jettySize=auto;html=1;exitX=0.5;exitY=1;exitDx=0;exitDy=0;entryX=0.5;entryY=0;entryDx=0;entryDy=0;" edge="1" parent="1" source="Lxihj4ZoKtsZomWR5RYV-11" target="Lxihj4ZoKtsZomWR5RYV-20">
          <mxGeometry relative="1" as="geometry" />
        </mxCell>
        <mxCell id="Lxihj4ZoKtsZomWR5RYV-89" style="edgeStyle=orthogonalEdgeStyle;rounded=0;orthogonalLoop=1;jettySize=auto;html=1;exitX=0;exitY=0.5;exitDx=0;exitDy=0;entryX=0.5;entryY=0;entryDx=0;entryDy=0;" edge="1" parent="1" source="Lxihj4ZoKtsZomWR5RYV-11" target="Lxihj4ZoKtsZomWR5RYV-67">
          <mxGeometry relative="1" as="geometry" />
        </mxCell>
        <mxCell id="Lxihj4ZoKtsZomWR5RYV-11" value="&lt;div&gt;compare valeur&lt;/div&gt;&lt;div&gt;drapeau&lt;br&gt;&lt;/div&gt;" style="rhombus;whiteSpace=wrap;html=1;" vertex="1" parent="1">
          <mxGeometry x="426" y="300" width="116" height="100" as="geometry" />
        </mxCell>
        <mxCell id="Lxihj4ZoKtsZomWR5RYV-91" style="edgeStyle=orthogonalEdgeStyle;rounded=0;orthogonalLoop=1;jettySize=auto;html=1;exitX=0.5;exitY=1;exitDx=0;exitDy=0;entryX=0.5;entryY=0;entryDx=0;entryDy=0;" edge="1" parent="1" source="Lxihj4ZoKtsZomWR5RYV-20" target="Lxihj4ZoKtsZomWR5RYV-75">
          <mxGeometry relative="1" as="geometry" />
        </mxCell>
        <mxCell id="Lxihj4ZoKtsZomWR5RYV-20" value="&lt;div&gt;Clique sur&amp;nbsp;&lt;/div&gt;&lt;div&gt;la fenêtre du robot&lt;/div&gt;&lt;div&gt;simulé en 3d&lt;/div&gt;&lt;div&gt;pour donner une&lt;/div&gt;&lt;div&gt;position&lt;br&gt;&lt;/div&gt;" style="rhombus;whiteSpace=wrap;html=1;" vertex="1" parent="1">
          <mxGeometry x="410" y="440" width="148" height="100" as="geometry" />
        </mxCell>
        <mxCell id="Lxihj4ZoKtsZomWR5RYV-36" style="edgeStyle=orthogonalEdgeStyle;rounded=0;orthogonalLoop=1;jettySize=auto;html=1;" edge="1" parent="1" source="Lxihj4ZoKtsZomWR5RYV-21" target="Lxihj4ZoKtsZomWR5RYV-22">
          <mxGeometry relative="1" as="geometry" />
        </mxCell>
        <mxCell id="Lxihj4ZoKtsZomWR5RYV-21" value="La simulation va a la position voulu" style="rounded=0;whiteSpace=wrap;html=1;" vertex="1" parent="1">
          <mxGeometry x="424" y="700" width="120" height="60" as="geometry" />
        </mxCell>
        <mxCell id="Lxihj4ZoKtsZomWR5RYV-47" style="edgeStyle=orthogonalEdgeStyle;rounded=0;orthogonalLoop=1;jettySize=auto;html=1;" edge="1" parent="1" source="Lxihj4ZoKtsZomWR5RYV-22" target="Lxihj4ZoKtsZomWR5RYV-46">
          <mxGeometry relative="1" as="geometry" />
        </mxCell>
        <mxCell id="Lxihj4ZoKtsZomWR5RYV-22" value="Résultat des déplacement en rad" style="rounded=0;whiteSpace=wrap;html=1;" vertex="1" parent="1">
          <mxGeometry x="424" y="800" width="120" height="60" as="geometry" />
        </mxCell>
        <mxCell id="Lxihj4ZoKtsZomWR5RYV-23" value="End" style="rounded=1;whiteSpace=wrap;html=1;" vertex="1" parent="1">
          <mxGeometry x="426" y="1000" width="120" height="60" as="geometry" />
        </mxCell>
        <mxCell id="Lxihj4ZoKtsZomWR5RYV-45" value="" style="endArrow=classic;html=1;rounded=0;entryX=0;entryY=0.5;entryDx=0;entryDy=0;" edge="1" parent="1" target="Lxihj4ZoKtsZomWR5RYV-10">
          <mxGeometry width="50" height="50" relative="1" as="geometry">
            <mxPoint x="484" y="880" as="sourcePoint" />
            <mxPoint x="426" y="110" as="targetPoint" />
            <Array as="points">
              <mxPoint x="140" y="880" />
              <mxPoint x="140" y="400" />
              <mxPoint x="140" y="100" />
            </Array>
          </mxGeometry>
        </mxCell>
        <mxCell id="Lxihj4ZoKtsZomWR5RYV-48" style="edgeStyle=orthogonalEdgeStyle;rounded=0;orthogonalLoop=1;jettySize=auto;html=1;entryX=0.5;entryY=0;entryDx=0;entryDy=0;" edge="1" parent="1" source="Lxihj4ZoKtsZomWR5RYV-46">
          <mxGeometry relative="1" as="geometry">
            <mxPoint x="484" y="1000" as="targetPoint" />
          </mxGeometry>
        </mxCell>
        <mxCell id="Lxihj4ZoKtsZomWR5RYV-46" value="Ferme toutes les fenêtres" style="rounded=0;whiteSpace=wrap;html=1;" vertex="1" parent="1">
          <mxGeometry x="424" y="900" width="120" height="60" as="geometry" />
        </mxCell>
        <mxCell id="Lxihj4ZoKtsZomWR5RYV-49" value="mode=2" style="text;html=1;align=center;verticalAlign=middle;whiteSpace=wrap;rounded=0;" vertex="1" parent="1">
          <mxGeometry x="544" y="320" width="60" height="30" as="geometry" />
        </mxCell>
        <mxCell id="Lxihj4ZoKtsZomWR5RYV-53" value="non" style="text;whiteSpace=wrap;html=1;" vertex="1" parent="1">
          <mxGeometry x="558" y="455" width="20" height="30" as="geometry" />
        </mxCell>
        <mxCell id="Lxihj4ZoKtsZomWR5RYV-54" value="oui" style="text;html=1;align=center;verticalAlign=middle;whiteSpace=wrap;rounded=0;" vertex="1" parent="1">
          <mxGeometry x="464" y="530" width="60" height="30" as="geometry" />
        </mxCell>
        <mxCell id="Lxihj4ZoKtsZomWR5RYV-84" style="edgeStyle=orthogonalEdgeStyle;rounded=0;orthogonalLoop=1;jettySize=auto;html=1;exitX=0.5;exitY=1;exitDx=0;exitDy=0;entryX=0.5;entryY=0;entryDx=0;entryDy=0;" edge="1" parent="1" target="Lxihj4ZoKtsZomWR5RYV-11">
          <mxGeometry relative="1" as="geometry">
            <mxPoint x="484" y="250" as="sourcePoint" />
          </mxGeometry>
        </mxCell>
        <mxCell id="Lxihj4ZoKtsZomWR5RYV-65" value="mode=1" style="text;html=1;align=center;verticalAlign=middle;whiteSpace=wrap;rounded=0;" vertex="1" parent="1">
          <mxGeometry x="494" y="400" width="60" height="30" as="geometry" />
        </mxCell>
        <mxCell id="Lxihj4ZoKtsZomWR5RYV-66" value="mode=0" style="text;html=1;align=center;verticalAlign=middle;whiteSpace=wrap;rounded=0;" vertex="1" parent="1">
          <mxGeometry x="350" y="320" width="60" height="30" as="geometry" />
        </mxCell>
        <mxCell id="Lxihj4ZoKtsZomWR5RYV-140" style="edgeStyle=orthogonalEdgeStyle;rounded=0;orthogonalLoop=1;jettySize=auto;html=1;entryX=0.5;entryY=0;entryDx=0;entryDy=0;" edge="1" parent="1" source="Lxihj4ZoKtsZomWR5RYV-67" target="Lxihj4ZoKtsZomWR5RYV-70">
          <mxGeometry relative="1" as="geometry" />
        </mxCell>
        <mxCell id="Lxihj4ZoKtsZomWR5RYV-67" value="Sélectionne la valeur du curseur" style="rounded=0;whiteSpace=wrap;html=1;" vertex="1" parent="1">
          <mxGeometry x="244" y="460" width="120" height="60" as="geometry" />
        </mxCell>
        <mxCell id="Lxihj4ZoKtsZomWR5RYV-92" style="edgeStyle=orthogonalEdgeStyle;rounded=0;orthogonalLoop=1;jettySize=auto;html=1;exitX=0;exitY=0.5;exitDx=0;exitDy=0;" edge="1" parent="1" source="Lxihj4ZoKtsZomWR5RYV-69">
          <mxGeometry relative="1" as="geometry">
            <mxPoint x="484" y="170" as="targetPoint" />
            <Array as="points">
              <mxPoint x="204" y="730" />
              <mxPoint x="204" y="170" />
            </Array>
          </mxGeometry>
        </mxCell>
        <mxCell id="Lxihj4ZoKtsZomWR5RYV-137" style="edgeStyle=orthogonalEdgeStyle;rounded=0;orthogonalLoop=1;jettySize=auto;html=1;" edge="1" parent="1" source="Lxihj4ZoKtsZomWR5RYV-69">
          <mxGeometry relative="1" as="geometry">
            <mxPoint x="490" y="870" as="targetPoint" />
            <Array as="points">
              <mxPoint x="304" y="870" />
            </Array>
          </mxGeometry>
        </mxCell>
        <mxCell id="Lxihj4ZoKtsZomWR5RYV-69" value="&lt;div&gt;clique bouton 2&lt;br&gt;&lt;/div&gt;" style="rhombus;whiteSpace=wrap;html=1;" vertex="1" parent="1">
          <mxGeometry x="246" y="680" width="116" height="100" as="geometry" />
        </mxCell>
        <mxCell id="Lxihj4ZoKtsZomWR5RYV-139" style="edgeStyle=orthogonalEdgeStyle;rounded=0;orthogonalLoop=1;jettySize=auto;html=1;entryX=0.5;entryY=0;entryDx=0;entryDy=0;" edge="1" parent="1" source="Lxihj4ZoKtsZomWR5RYV-70" target="Lxihj4ZoKtsZomWR5RYV-69">
          <mxGeometry relative="1" as="geometry" />
        </mxCell>
        <mxCell id="Lxihj4ZoKtsZomWR5RYV-70" value="Applique valeur" style="rounded=0;whiteSpace=wrap;html=1;" vertex="1" parent="1">
          <mxGeometry x="244" y="580" width="120" height="60" as="geometry" />
        </mxCell>
        <mxCell id="Lxihj4ZoKtsZomWR5RYV-71" value="oui" style="text;html=1;align=center;verticalAlign=middle;whiteSpace=wrap;rounded=0;" vertex="1" parent="1">
          <mxGeometry x="290" y="770" width="60" height="30" as="geometry" />
        </mxCell>
        <mxCell id="Lxihj4ZoKtsZomWR5RYV-72" value="non" style="text;whiteSpace=wrap;html=1;" vertex="1" parent="1">
          <mxGeometry x="224" y="710" width="20" height="30" as="geometry" />
        </mxCell>
        <mxCell id="Lxihj4ZoKtsZomWR5RYV-118" style="edgeStyle=orthogonalEdgeStyle;rounded=0;orthogonalLoop=1;jettySize=auto;html=1;exitX=0.5;exitY=1;exitDx=0;exitDy=0;entryX=0.5;entryY=0;entryDx=0;entryDy=0;" edge="1" parent="1" source="Lxihj4ZoKtsZomWR5RYV-75" target="Lxihj4ZoKtsZomWR5RYV-21">
          <mxGeometry relative="1" as="geometry" />
        </mxCell>
        <mxCell id="Lxihj4ZoKtsZomWR5RYV-75" value="Calcule cinématique inverse" style="rounded=0;whiteSpace=wrap;html=1;" vertex="1" parent="1">
          <mxGeometry x="424" y="580" width="120" height="60" as="geometry" />
        </mxCell>
        <mxCell id="Lxihj4ZoKtsZomWR5RYV-119" style="edgeStyle=orthogonalEdgeStyle;rounded=0;orthogonalLoop=1;jettySize=auto;html=1;exitX=0.5;exitY=1;exitDx=0;exitDy=0;entryX=0.5;entryY=0;entryDx=0;entryDy=0;" edge="1" parent="1" source="Lxihj4ZoKtsZomWR5RYV-77" target="Lxihj4ZoKtsZomWR5RYV-78">
          <mxGeometry relative="1" as="geometry" />
        </mxCell>
        <mxCell id="Lxihj4ZoKtsZomWR5RYV-77" value="Calcule cinématique inverse" style="rounded=0;whiteSpace=wrap;html=1;" vertex="1" parent="1">
          <mxGeometry x="634" y="580" width="120" height="60" as="geometry" />
        </mxCell>
        <mxCell id="Lxihj4ZoKtsZomWR5RYV-120" style="edgeStyle=orthogonalEdgeStyle;rounded=0;orthogonalLoop=1;jettySize=auto;html=1;exitX=0.5;exitY=1;exitDx=0;exitDy=0;" edge="1" parent="1" source="Lxihj4ZoKtsZomWR5RYV-78">
          <mxGeometry relative="1" as="geometry">
            <mxPoint x="484" y="870" as="targetPoint" />
            <Array as="points">
              <mxPoint x="694" y="870" />
              <mxPoint x="484" y="870" />
            </Array>
          </mxGeometry>
        </mxCell>
        <mxCell id="Lxihj4ZoKtsZomWR5RYV-78" value="La simulation va a la position voulu" style="rounded=0;whiteSpace=wrap;html=1;" vertex="1" parent="1">
          <mxGeometry x="634" y="700" width="120" height="60" as="geometry" />
        </mxCell>
        <mxCell id="Lxihj4ZoKtsZomWR5RYV-94" style="edgeStyle=orthogonalEdgeStyle;rounded=0;orthogonalLoop=1;jettySize=auto;html=1;exitX=0.5;exitY=1;exitDx=0;exitDy=0;entryX=0.5;entryY=0;entryDx=0;entryDy=0;" edge="1" parent="1" source="Lxihj4ZoKtsZomWR5RYV-96" target="Lxihj4ZoKtsZomWR5RYV-97">
          <mxGeometry relative="1" as="geometry" />
        </mxCell>
        <mxCell id="Lxihj4ZoKtsZomWR5RYV-95" style="edgeStyle=orthogonalEdgeStyle;rounded=0;orthogonalLoop=1;jettySize=auto;html=1;exitX=1;exitY=0.5;exitDx=0;exitDy=0;entryX=0.5;entryY=0;entryDx=0;entryDy=0;" edge="1" parent="1" source="Lxihj4ZoKtsZomWR5RYV-96" target="Lxihj4ZoKtsZomWR5RYV-101">
          <mxGeometry relative="1" as="geometry" />
        </mxCell>
        <mxCell id="Lxihj4ZoKtsZomWR5RYV-96" value="&lt;div&gt;clique fenetre1&lt;br&gt;&lt;/div&gt;" style="rhombus;whiteSpace=wrap;html=1;" vertex="1" parent="1">
          <mxGeometry x="1402" y="-180" width="116" height="100" as="geometry" />
        </mxCell>
        <mxCell id="Lxihj4ZoKtsZomWR5RYV-111" style="edgeStyle=orthogonalEdgeStyle;rounded=0;orthogonalLoop=1;jettySize=auto;html=1;" edge="1" parent="1" source="Lxihj4ZoKtsZomWR5RYV-97">
          <mxGeometry relative="1" as="geometry">
            <mxPoint x="1460" y="140" as="targetPoint" />
          </mxGeometry>
        </mxCell>
        <mxCell id="Lxihj4ZoKtsZomWR5RYV-97" value="mode=1" style="rounded=0;whiteSpace=wrap;html=1;" vertex="1" parent="1">
          <mxGeometry x="1400" y="-30" width="120" height="60" as="geometry" />
        </mxCell>
        <mxCell id="Lxihj4ZoKtsZomWR5RYV-98" style="edgeStyle=orthogonalEdgeStyle;rounded=0;orthogonalLoop=1;jettySize=auto;html=1;exitX=0.5;exitY=1;exitDx=0;exitDy=0;" edge="1" parent="1" source="Lxihj4ZoKtsZomWR5RYV-99">
          <mxGeometry relative="1" as="geometry">
            <mxPoint x="1460" y="50" as="targetPoint" />
            <Array as="points">
              <mxPoint x="1320" y="50" />
            </Array>
          </mxGeometry>
        </mxCell>
        <mxCell id="Lxihj4ZoKtsZomWR5RYV-99" value="mode=0" style="rounded=0;whiteSpace=wrap;html=1;" vertex="1" parent="1">
          <mxGeometry x="1260" y="-30" width="120" height="60" as="geometry" />
        </mxCell>
        <mxCell id="Lxihj4ZoKtsZomWR5RYV-100" style="edgeStyle=orthogonalEdgeStyle;rounded=0;orthogonalLoop=1;jettySize=auto;html=1;exitX=0.5;exitY=1;exitDx=0;exitDy=0;" edge="1" parent="1" source="Lxihj4ZoKtsZomWR5RYV-101">
          <mxGeometry relative="1" as="geometry">
            <mxPoint x="1460" y="50" as="targetPoint" />
            <Array as="points">
              <mxPoint x="1600" y="50" />
            </Array>
          </mxGeometry>
        </mxCell>
        <mxCell id="Lxihj4ZoKtsZomWR5RYV-101" value="mode=2" style="rounded=0;whiteSpace=wrap;html=1;" vertex="1" parent="1">
          <mxGeometry x="1540" y="-30" width="120" height="60" as="geometry" />
        </mxCell>
        <mxCell id="Lxihj4ZoKtsZomWR5RYV-102" style="edgeStyle=orthogonalEdgeStyle;rounded=0;orthogonalLoop=1;jettySize=auto;html=1;exitX=1;exitY=1;exitDx=0;exitDy=0;entryX=0.5;entryY=0;entryDx=0;entryDy=0;" edge="1" parent="1" target="Lxihj4ZoKtsZomWR5RYV-99">
          <mxGeometry relative="1" as="geometry">
            <mxPoint x="1400" y="-130" as="sourcePoint" />
            <Array as="points">
              <mxPoint x="1320" y="-130" />
            </Array>
          </mxGeometry>
        </mxCell>
        <mxCell id="Lxihj4ZoKtsZomWR5RYV-103" value="clique sur bouton 1" style="text;html=1;align=center;verticalAlign=middle;whiteSpace=wrap;rounded=0;" vertex="1" parent="1">
          <mxGeometry x="1470" y="-80" width="60" height="30" as="geometry" />
        </mxCell>
        <mxCell id="Lxihj4ZoKtsZomWR5RYV-104" value="clique sur bouton 2" style="text;html=1;align=center;verticalAlign=middle;whiteSpace=wrap;rounded=0;" vertex="1" parent="1">
          <mxGeometry x="1534" y="-160" width="60" height="30" as="geometry" />
        </mxCell>
        <mxCell id="Lxihj4ZoKtsZomWR5RYV-105" value="clique sur bouton 0" style="text;html=1;align=center;verticalAlign=middle;whiteSpace=wrap;rounded=0;" vertex="1" parent="1">
          <mxGeometry x="1338" y="-170" width="60" height="30" as="geometry" />
        </mxCell>
        <mxCell id="Lxihj4ZoKtsZomWR5RYV-106" value="Sélectionne mode" style="rounded=0;whiteSpace=wrap;html=1;" vertex="1" parent="1">
          <mxGeometry x="424" y="190" width="120" height="60" as="geometry" />
        </mxCell>
        <mxCell id="Lxihj4ZoKtsZomWR5RYV-109" style="edgeStyle=orthogonalEdgeStyle;rounded=0;orthogonalLoop=1;jettySize=auto;html=1;entryX=0.5;entryY=0;entryDx=0;entryDy=0;" edge="1" parent="1" source="Lxihj4ZoKtsZomWR5RYV-107" target="Lxihj4ZoKtsZomWR5RYV-96">
          <mxGeometry relative="1" as="geometry" />
        </mxCell>
        <mxCell id="Lxihj4ZoKtsZomWR5RYV-107" value="&lt;div&gt;Sélectionne mode&lt;/div&gt;&lt;div&gt;default=0&lt;br&gt;&lt;/div&gt;" style="rounded=0;whiteSpace=wrap;html=1;" vertex="1" parent="1">
          <mxGeometry x="1400" y="-310" width="120" height="60" as="geometry" />
        </mxCell>
        <mxCell id="Lxihj4ZoKtsZomWR5RYV-108" value="si ne clique pas garde le mode memorisé" style="text;html=1;align=center;verticalAlign=middle;whiteSpace=wrap;rounded=0;" vertex="1" parent="1">
          <mxGeometry x="1530" y="-240" width="130" height="30" as="geometry" />
        </mxCell>
        <mxCell id="Lxihj4ZoKtsZomWR5RYV-110" value="" style="endArrow=classic;html=1;rounded=0;" edge="1" parent="1">
          <mxGeometry width="50" height="50" relative="1" as="geometry">
            <mxPoint x="1460" y="-210" as="sourcePoint" />
            <mxPoint x="1460" y="90" as="targetPoint" />
            <Array as="points">
              <mxPoint x="1730" y="-210" />
              <mxPoint x="1730" y="90" />
            </Array>
          </mxGeometry>
        </mxCell>
        <mxCell id="Lxihj4ZoKtsZomWR5RYV-112" value="End mode" style="rounded=0;whiteSpace=wrap;html=1;" vertex="1" parent="1">
          <mxGeometry x="1400" y="145" width="120" height="60" as="geometry" />
        </mxCell>
        <mxCell id="Lxihj4ZoKtsZomWR5RYV-117" style="edgeStyle=orthogonalEdgeStyle;rounded=0;orthogonalLoop=1;jettySize=auto;html=1;exitX=0.5;exitY=1;exitDx=0;exitDy=0;entryX=0.5;entryY=0;entryDx=0;entryDy=0;" edge="1" parent="1" source="Lxihj4ZoKtsZomWR5RYV-113" target="Lxihj4ZoKtsZomWR5RYV-77">
          <mxGeometry relative="1" as="geometry" />
        </mxCell>
        <mxCell id="Lxihj4ZoKtsZomWR5RYV-142" style="edgeStyle=orthogonalEdgeStyle;rounded=0;orthogonalLoop=1;jettySize=auto;html=1;exitX=1;exitY=0.5;exitDx=0;exitDy=0;" edge="1" parent="1" source="Lxihj4ZoKtsZomWR5RYV-113">
          <mxGeometry relative="1" as="geometry">
            <mxPoint x="480" y="170" as="targetPoint" />
            <Array as="points">
              <mxPoint x="820" y="490" />
              <mxPoint x="820" y="170" />
            </Array>
          </mxGeometry>
        </mxCell>
        <mxCell id="Lxihj4ZoKtsZomWR5RYV-113" value="&lt;div&gt;Recupere&lt;/div&gt;&lt;div&gt;valeur du capteur&lt;/div&gt;&lt;div&gt;infrarouge&lt;br&gt;&lt;/div&gt;" style="rhombus;whiteSpace=wrap;html=1;" vertex="1" parent="1">
          <mxGeometry x="620" y="440" width="148" height="100" as="geometry" />
        </mxCell>
        <mxCell id="Lxihj4ZoKtsZomWR5RYV-115" value="non" style="text;whiteSpace=wrap;html=1;" vertex="1" parent="1">
          <mxGeometry x="774" y="460" width="20" height="30" as="geometry" />
        </mxCell>
        <mxCell id="Lxihj4ZoKtsZomWR5RYV-116" value="oui" style="text;html=1;align=center;verticalAlign=middle;whiteSpace=wrap;rounded=0;" vertex="1" parent="1">
          <mxGeometry x="674" y="530" width="60" height="30" as="geometry" />
        </mxCell>
        <mxCell id="Lxihj4ZoKtsZomWR5RYV-134" style="edgeStyle=orthogonalEdgeStyle;rounded=0;orthogonalLoop=1;jettySize=auto;html=1;exitX=0.5;exitY=1;exitDx=0;exitDy=0;entryX=0.5;entryY=0;entryDx=0;entryDy=0;" edge="1" parent="1" source="Lxihj4ZoKtsZomWR5RYV-122" target="Lxihj4ZoKtsZomWR5RYV-123">
          <mxGeometry relative="1" as="geometry" />
        </mxCell>
        <mxCell id="Lxihj4ZoKtsZomWR5RYV-122" value="Initialisation simulation 3d" style="rounded=0;whiteSpace=wrap;html=1;" vertex="1" parent="1">
          <mxGeometry x="990" y="-320" width="120" height="60" as="geometry" />
        </mxCell>
        <mxCell id="Lxihj4ZoKtsZomWR5RYV-129" style="edgeStyle=orthogonalEdgeStyle;rounded=0;orthogonalLoop=1;jettySize=auto;html=1;exitX=0.5;exitY=1;exitDx=0;exitDy=0;entryX=0.5;entryY=0;entryDx=0;entryDy=0;" edge="1" parent="1" source="Lxihj4ZoKtsZomWR5RYV-123" target="Lxihj4ZoKtsZomWR5RYV-124">
          <mxGeometry relative="1" as="geometry" />
        </mxCell>
        <mxCell id="Lxihj4ZoKtsZomWR5RYV-123" value="Nombre de &quot;corps&quot;" style="rounded=0;whiteSpace=wrap;html=1;" vertex="1" parent="1">
          <mxGeometry x="990" y="-230" width="120" height="60" as="geometry" />
        </mxCell>
        <mxCell id="Lxihj4ZoKtsZomWR5RYV-130" style="edgeStyle=orthogonalEdgeStyle;rounded=0;orthogonalLoop=1;jettySize=auto;html=1;exitX=0.5;exitY=1;exitDx=0;exitDy=0;entryX=0.5;entryY=0;entryDx=0;entryDy=0;" edge="1" parent="1" source="Lxihj4ZoKtsZomWR5RYV-124" target="Lxihj4ZoKtsZomWR5RYV-125">
          <mxGeometry relative="1" as="geometry" />
        </mxCell>
        <mxCell id="Lxihj4ZoKtsZomWR5RYV-124" value="Dimension de chaque &quot;corps&quot;" style="rounded=0;whiteSpace=wrap;html=1;" vertex="1" parent="1">
          <mxGeometry x="990" y="-140" width="120" height="60" as="geometry" />
        </mxCell>
        <mxCell id="Lxihj4ZoKtsZomWR5RYV-131" style="edgeStyle=orthogonalEdgeStyle;rounded=0;orthogonalLoop=1;jettySize=auto;html=1;exitX=0.5;exitY=1;exitDx=0;exitDy=0;" edge="1" parent="1" source="Lxihj4ZoKtsZomWR5RYV-125" target="Lxihj4ZoKtsZomWR5RYV-126">
          <mxGeometry relative="1" as="geometry" />
        </mxCell>
        <mxCell id="Lxihj4ZoKtsZomWR5RYV-125" value="Nombre de &quot;joints&quot;" style="rounded=0;whiteSpace=wrap;html=1;" vertex="1" parent="1">
          <mxGeometry x="990" y="-50" width="120" height="60" as="geometry" />
        </mxCell>
        <mxCell id="Lxihj4ZoKtsZomWR5RYV-132" style="edgeStyle=orthogonalEdgeStyle;rounded=0;orthogonalLoop=1;jettySize=auto;html=1;exitX=0.5;exitY=1;exitDx=0;exitDy=0;entryX=0.5;entryY=0;entryDx=0;entryDy=0;" edge="1" parent="1" source="Lxihj4ZoKtsZomWR5RYV-126" target="Lxihj4ZoKtsZomWR5RYV-127">
          <mxGeometry relative="1" as="geometry" />
        </mxCell>
        <mxCell id="Lxihj4ZoKtsZomWR5RYV-126" value="Limitation des rotations des &quot;joints&quot;" style="rounded=0;whiteSpace=wrap;html=1;" vertex="1" parent="1">
          <mxGeometry x="990" y="40" width="120" height="60" as="geometry" />
        </mxCell>
        <mxCell id="Lxihj4ZoKtsZomWR5RYV-133" style="edgeStyle=orthogonalEdgeStyle;rounded=0;orthogonalLoop=1;jettySize=auto;html=1;exitX=0.5;exitY=1;exitDx=0;exitDy=0;entryX=0.5;entryY=0;entryDx=0;entryDy=0;" edge="1" parent="1" source="Lxihj4ZoKtsZomWR5RYV-127" target="Lxihj4ZoKtsZomWR5RYV-128">
          <mxGeometry relative="1" as="geometry" />
        </mxCell>
        <mxCell id="Lxihj4ZoKtsZomWR5RYV-127" value="Création des curseurs" style="rounded=0;whiteSpace=wrap;html=1;" vertex="1" parent="1">
          <mxGeometry x="990" y="130" width="120" height="60" as="geometry" />
        </mxCell>
        <mxCell id="Lxihj4ZoKtsZomWR5RYV-128" value="End initialisation 3d robot " style="rounded=0;whiteSpace=wrap;html=1;" vertex="1" parent="1">
          <mxGeometry x="990" y="220" width="120" height="60" as="geometry" />
        </mxCell>
        <mxCell id="Lxihj4ZoKtsZomWR5RYV-144" value="" style="verticalLabelPosition=bottom;verticalAlign=top;html=1;shape=mxgraph.basic.arc;startAngle=0.7484085036175459;endAngle=0.25;rotation=90;" vertex="1" parent="1">
          <mxGeometry x="578" y="323.75" width="49" height="52.5" as="geometry" />
        </mxCell>
        <mxCell id="Lxihj4ZoKtsZomWR5RYV-145" value="" style="endArrow=none;html=1;rounded=0;exitX=1;exitY=0.5;exitDx=0;exitDy=0;" edge="1" parent="1" source="Lxihj4ZoKtsZomWR5RYV-20" target="Lxihj4ZoKtsZomWR5RYV-144">
          <mxGeometry width="50" height="50" relative="1" as="geometry">
            <mxPoint x="630" y="420" as="sourcePoint" />
            <mxPoint x="680" y="370" as="targetPoint" />
            <Array as="points">
              <mxPoint x="603" y="490" />
            </Array>
          </mxGeometry>
        </mxCell>
        <mxCell id="Lxihj4ZoKtsZomWR5RYV-146" value="" style="endArrow=none;html=1;rounded=0;" edge="1" parent="1" source="Lxihj4ZoKtsZomWR5RYV-144">
          <mxGeometry width="50" height="50" relative="1" as="geometry">
            <mxPoint x="620" y="290" as="sourcePoint" />
            <mxPoint x="603" y="170" as="targetPoint" />
          </mxGeometry>
        </mxCell>
      </root>
    </mxGraphModel>
  </diagram>
</mxfile>
